<svg width="192" height="192" viewBox="0 0 192 192" fill="none" xmlns="http://www.w3.org/2000/svg">
<rect width="192" height="192" rx="96" fill="#FF6524"/>
<path fill-rule="evenodd" clip-rule="evenodd" d="M49 42.3C49 38.7726 50.4148 35.3897 52.9331 32.8955C55.4515 30.4012 58.8671 29 62.4286 29H129.571C133.133 29 136.549 30.4012 139.067 32.8955C141.585 35.3897 143 38.7726 143 42.3V54.669C142.999 60.1429 141.634 65.532 139.026 70.3579C136.417 75.1838 132.646 79.2972 128.047 82.333L108.106 95.5L128.047 108.667C132.646 111.703 136.417 115.816 139.026 120.642C141.634 125.468 142.999 130.857 143 136.331V148.7C143 152.227 141.585 155.61 139.067 158.105C136.549 160.599 133.133 162 129.571 162H62.4286C58.8671 162 55.4515 160.599 52.9331 158.105C50.4148 155.61 49 152.227 49 148.7V136.331C48.9999 130.858 50.364 125.469 52.9713 120.643C55.5785 115.817 59.3483 111.704 63.946 108.667L83.9009 95.5L63.9594 82.333C59.3592 79.2979 55.5868 75.1849 52.9772 70.3589C50.3675 65.533 49.0014 60.1435 49 54.669V42.3ZM96 87.5067L120.601 71.2607C123.359 69.4397 125.621 66.9727 127.186 64.0784C128.751 61.1841 129.57 57.9521 129.571 54.669V42.3H62.4286V54.669C62.4299 57.9521 63.2493 61.1841 64.8141 64.0784C66.3789 66.9727 68.6407 69.4397 71.3989 71.2607L96 87.5067ZM96 103.493L71.3989 119.739C68.6407 121.56 66.3789 124.027 64.8141 126.922C63.2493 129.816 62.4299 133.048 62.4286 136.331V148.7H129.571V136.331C129.57 133.048 128.751 129.816 127.186 126.922C125.621 124.027 123.359 121.56 120.601 119.739L96 103.493Z" fill="white"/>
</svg>
